<?xml version="1.0" standalone="no"?>
<!DOCTYPE svg PUBLIC "-//W3C//DTD SVG 20010904//EN"
 "http://www.w3.org/TR/2001/REC-SVG-20010904/DTD/svg10.dtd">
<svg version="1.0" xmlns="http://www.w3.org/2000/svg"
 width="464.000000pt" height="469.000000pt" viewBox="0 0 464.000000 469.000000"
 preserveAspectRatio="xMidYMid meet">

<g transform="translate(0.000000,469.000000) scale(0.100000,-0.100000)"
fill="#000000" stroke="none">
<path d="M2155 4588 c-551 -55 -1077 -330 -1442 -753 -339 -392 -526 -865
-550 -1390 -30 -674 273 -1367 786 -1796 323 -271 698 -442 1111 -506 159 -24
492 -24 645 1 486 79 900 289 1240 630 598 601 806 1484 540 2294 -165 499
-502 926 -955 1207 -398 246 -901 361 -1375 313z m475 -48 c678 -82 1271 -468
1624 -1056 154 -258 258 -565 296 -874 15 -127 12 -411 -6 -552 -81 -629 -444
-1202 -987 -1556 -104 -68 -290 -162 -408 -205 -260 -97 -483 -137 -766 -137
-359 0 -642 65 -959 220 -437 213 -789 566 -1005 1008 -70 142 -148 372 -178
522 -63 322 -55 679 23 987 219 867 941 1515 1826 1638 116 16 425 19 540 5z"/>
<path d="M2165 4459 c-318 -33 -674 -161 -939 -336 -435 -289 -752 -730 -880
-1224 -53 -207 -61 -277 -61 -549 0 -240 2 -263 28 -395 182 -901 881 -1569
1778 -1700 143 -20 436 -20 582 1 853 123 1554 763 1752 1599 75 318 75 692
-1 1004 -171 700 -703 1284 -1366 1500 -296 96 -602 130 -893 100z m1231 -764
c16 -8 36 -15 45 -15 34 0 146 -60 179 -97 20 -21 51 -69 69 -106 31 -64 34
-78 39 -193 5 -135 3 -143 -52 -169 -218 -101 -550 -112 -872 -29 -62 16 -141
27 -211 31 l-112 6 -95 -48 c-116 -58 -136 -75 -136 -120 0 -63 104 -226 166
-259 16 -10 42 -27 56 -39 14 -12 43 -35 64 -52 44 -35 127 -105 134 -114 3
-3 23 -19 45 -35 22 -16 47 -37 56 -45 31 -31 64 -56 89 -69 54 -27 134 -72
168 -94 166 -108 171 -112 160 -125 -6 -8 -32 -13 -64 -13 -55 0 -155 -17
-299 -50 -44 -10 -141 -21 -215 -25 -74 -4 -195 -13 -268 -21 -74 -8 -152 -14
-175 -14 -22 0 -54 -4 -71 -10 -17 -5 -71 -21 -121 -35 -49 -14 -99 -30 -110
-35 -11 -5 -32 -12 -46 -17 -51 -16 -159 -169 -159 -225 0 -42 25 -95 65 -139
19 -22 35 -45 35 -53 0 -15 118 -128 161 -153 16 -10 29 -21 29 -24 0 -4 6
-14 14 -22 8 -7 33 -52 56 -98 62 -123 64 -128 57 -135 -6 -6 -97 17 -142 36
-11 5 -36 11 -55 14 -20 3 -52 15 -73 26 -21 11 -66 31 -100 44 -34 13 -100
49 -147 80 -47 30 -94 61 -105 68 -11 7 -74 68 -140 136 -66 67 -124 122 -129
122 -21 0 -104 103 -141 177 -35 69 -40 88 -43 160 -4 78 -3 83 29 130 45 66
126 151 171 179 63 40 120 54 269 64 165 12 313 26 414 39 105 15 399 12 580
-4 88 -8 170 -15 183 -15 33 0 27 19 -11 35 -19 8 -39 21 -47 29 -7 9 -18 16
-25 16 -6 0 -40 18 -74 40 -34 22 -66 40 -71 40 -8 0 -99 57 -110 69 -9 10
-64 42 -100 58 -19 8 -49 26 -67 39 -17 13 -36 24 -42 24 -6 0 -11 4 -11 8 0
4 -33 33 -72 63 -99 74 -227 207 -262 271 -23 43 -30 69 -33 138 -5 74 -3 88
15 108 10 12 24 22 29 22 6 0 21 8 34 18 13 11 47 27 74 37 28 11 52 22 55 25
3 3 43 18 90 34 47 15 94 32 104 38 51 28 209 18 441 -27 146 -28 206 -34 421
-40 234 -7 288 -1 325 36 10 10 22 19 25 19 11 0 34 29 34 44 0 22 -50 53
-106 66 -27 6 -56 15 -65 20 -9 5 -38 12 -65 15 -27 4 -53 11 -59 15 -5 4 -77
24 -160 45 -82 21 -154 42 -159 46 -6 5 -35 10 -65 10 -69 2 -122 13 -101 22
34 13 70 15 416 16 303 1 366 -1 390 -14z"/>
</g>
</svg>
